# Blender 3.6.5
# www.blender.org
o Окружность
v -0.000000 0.185589 -0.801342
v -0.156334 0.185589 -0.785945
v -0.306660 0.185589 -0.740344
v -0.445202 0.185589 -0.666292
v -0.566635 0.185589 -0.566635
v -0.666292 0.185589 -0.445202
v -0.740344 0.185589 -0.306660
v -0.785945 0.185589 -0.156334
v -0.801342 0.185589 -0.000000
v -0.785945 0.185589 0.156334
v -0.740344 0.185589 0.306660
v -0.666292 0.185589 0.445202
v -0.566635 0.185589 0.566635
v -0.445202 0.185589 0.666292
v -0.306660 0.185589 0.740344
v -0.156334 0.185589 0.785945
v -0.000000 0.185589 0.801342
v 0.156334 0.185589 0.785945
v 0.306660 0.185589 0.740344
v 0.445202 0.185589 0.666292
v 0.566635 0.185589 0.566635
v 0.666292 0.185589 0.445202
v 0.740344 0.185589 0.306660
v 0.785945 0.185589 0.156334
v 0.801342 0.185589 -0.000000
v 0.785945 0.185589 -0.156334
v 0.740344 0.185589 -0.306660
v 0.666292 0.185589 -0.445202
v 0.566635 0.185589 -0.566635
v 0.445202 0.185589 -0.666292
v 0.306660 0.185589 -0.740344
v 0.156334 0.185589 -0.785945
v -0.175129 2.102123 -0.880434
v -0.000000 2.102123 -0.897683
v -0.343528 2.102123 -0.829351
v -0.498726 2.102123 -0.746396
v -0.634758 2.102123 -0.634758
v -0.746396 2.102123 -0.498726
v -0.829351 2.102123 -0.343528
v -0.880434 2.102123 -0.175129
v -0.897683 2.102123 -0.000000
v -0.880434 2.102123 0.175129
v -0.829351 2.102123 0.343528
v -0.746396 2.102123 0.498726
v -0.634758 2.102123 0.634758
v -0.498726 2.102123 0.746396
v -0.343528 2.102123 0.829351
v -0.175129 2.102123 0.880434
v -0.000000 2.102123 0.897683
v 0.175129 2.102123 0.880434
v 0.343528 2.102123 0.829351
v 0.498726 2.102123 0.746396
v 0.634758 2.102123 0.634758
v 0.746396 2.102123 0.498726
v 0.829351 2.102123 0.343528
v 0.880434 2.102123 0.175129
v 0.897683 2.102123 -0.000000
v 0.880434 2.102123 -0.175129
v 0.829351 2.102123 -0.343528
v 0.746396 2.102123 -0.498726
v 0.634758 2.102123 -0.634758
v 0.498726 2.102123 -0.746396
v 0.343528 2.102123 -0.829351
v 0.175129 2.102123 -0.880434
vn -0.0000 1.0000 -0.0000
vn 0.8808 -0.0500 -0.4708
vn -0.4708 -0.0500 0.8808
vn -0.0979 -0.0500 -0.9939
vn 0.7720 -0.0500 -0.6336
vn -0.2899 -0.0500 0.9557
vn -0.2899 -0.0500 -0.9557
vn 0.6336 -0.0500 -0.7720
vn -0.0979 -0.0500 0.9939
vn -0.4708 -0.0500 -0.8808
vn 0.4708 -0.0500 -0.8808
vn 0.0979 -0.0500 0.9939
vn -0.6336 -0.0500 -0.7720
vn 0.2899 -0.0500 -0.9557
vn 0.2899 -0.0500 0.9557
vn -0.7720 -0.0500 -0.6336
vn 0.0979 -0.0500 -0.9939
vn 0.4708 -0.0500 0.8808
vn -0.8808 -0.0500 -0.4708
vn 0.6336 -0.0500 0.7720
vn -0.9557 -0.0500 -0.2899
vn 0.7720 -0.0500 0.6336
vn -0.9939 -0.0500 -0.0979
vn 0.8808 -0.0500 0.4708
vn -0.9939 -0.0500 0.0979
vn 0.9557 -0.0500 0.2899
vn -0.9557 -0.0500 0.2899
vn 0.9939 -0.0500 0.0979
vn -0.8808 -0.0500 0.4708
vn 0.9939 -0.0500 -0.0979
vn -0.7720 -0.0500 0.6336
vn 0.9557 -0.0500 -0.2899
vn -0.6336 -0.0500 0.7720
vt 0.000000 0.000000
s 0
f 49/1/1 57/1/1 34/1/1
f 28/1/2 59/1/2 27/1/2
f 15/1/3 46/1/3 14/1/3
f 2/1/4 34/1/4 1/1/4
f 29/1/5 60/1/5 28/1/5
f 16/1/6 47/1/6 15/1/6
f 3/1/7 33/1/7 2/1/7
f 30/1/8 61/1/8 29/1/8
f 17/1/9 48/1/9 16/1/9
f 4/1/10 35/1/10 3/1/10
f 31/1/11 62/1/11 30/1/11
f 18/1/12 49/1/12 17/1/12
f 5/1/13 36/1/13 4/1/13
f 32/1/14 63/1/14 31/1/14
f 19/1/15 50/1/15 18/1/15
f 6/1/16 37/1/16 5/1/16
f 1/1/17 64/1/17 32/1/17
f 20/1/18 51/1/18 19/1/18
f 7/1/19 38/1/19 6/1/19
f 21/1/20 52/1/20 20/1/20
f 8/1/21 39/1/21 7/1/21
f 22/1/22 53/1/22 21/1/22
f 9/1/23 40/1/23 8/1/23
f 23/1/24 54/1/24 22/1/24
f 10/1/25 41/1/25 9/1/25
f 24/1/26 55/1/26 23/1/26
f 11/1/27 42/1/27 10/1/27
f 25/1/28 56/1/28 24/1/28
f 12/1/29 43/1/29 11/1/29
f 26/1/30 57/1/30 25/1/30
f 13/1/31 44/1/31 12/1/31
f 27/1/32 58/1/32 26/1/32
f 14/1/33 45/1/33 13/1/33
f 34/1/1 33/1/1 35/1/1
f 35/1/1 36/1/1 37/1/1
f 37/1/1 38/1/1 39/1/1
f 39/1/1 40/1/1 41/1/1
f 41/1/1 42/1/1 43/1/1
f 43/1/1 44/1/1 45/1/1
f 45/1/1 46/1/1 47/1/1
f 47/1/1 48/1/1 49/1/1
f 49/1/1 50/1/1 51/1/1
f 51/1/1 52/1/1 53/1/1
f 53/1/1 54/1/1 55/1/1
f 55/1/1 56/1/1 57/1/1
f 57/1/1 58/1/1 59/1/1
f 59/1/1 60/1/1 61/1/1
f 61/1/1 62/1/1 63/1/1
f 63/1/1 64/1/1 34/1/1
f 34/1/1 35/1/1 37/1/1
f 37/1/1 39/1/1 41/1/1
f 41/1/1 43/1/1 45/1/1
f 45/1/1 47/1/1 49/1/1
f 49/1/1 51/1/1 53/1/1
f 53/1/1 55/1/1 57/1/1
f 57/1/1 59/1/1 61/1/1
f 61/1/1 63/1/1 34/1/1
f 34/1/1 37/1/1 41/1/1
f 41/1/1 45/1/1 49/1/1
f 49/1/1 53/1/1 57/1/1
f 57/1/1 61/1/1 34/1/1
f 34/1/1 41/1/1 49/1/1
f 28/1/2 60/1/2 59/1/2
f 15/1/3 47/1/3 46/1/3
f 2/1/4 33/1/4 34/1/4
f 29/1/5 61/1/5 60/1/5
f 16/1/6 48/1/6 47/1/6
f 3/1/7 35/1/7 33/1/7
f 30/1/8 62/1/8 61/1/8
f 17/1/9 49/1/9 48/1/9
f 4/1/10 36/1/10 35/1/10
f 31/1/11 63/1/11 62/1/11
f 18/1/12 50/1/12 49/1/12
f 5/1/13 37/1/13 36/1/13
f 32/1/14 64/1/14 63/1/14
f 19/1/15 51/1/15 50/1/15
f 6/1/16 38/1/16 37/1/16
f 1/1/17 34/1/17 64/1/17
f 20/1/18 52/1/18 51/1/18
f 7/1/19 39/1/19 38/1/19
f 21/1/20 53/1/20 52/1/20
f 8/1/21 40/1/21 39/1/21
f 22/1/22 54/1/22 53/1/22
f 9/1/23 41/1/23 40/1/23
f 23/1/24 55/1/24 54/1/24
f 10/1/25 42/1/25 41/1/25
f 24/1/26 56/1/26 55/1/26
f 11/1/27 43/1/27 42/1/27
f 25/1/28 57/1/28 56/1/28
f 12/1/29 44/1/29 43/1/29
f 26/1/30 58/1/30 57/1/30
f 13/1/31 45/1/31 44/1/31
f 27/1/32 59/1/32 58/1/32
f 14/1/33 46/1/33 45/1/33
